<?xml version="1.0" encoding="UTF-8"?>
<svg id="Capa_2" data-name="Capa 2" xmlns="http://www.w3.org/2000/svg" viewBox="0 0 543.66 386.56">
  <defs>
    <style>
      .cls-1, .cls-2 {
        fill: #fff;
      }

      .cls-1, .cls-3, .cls-4 {
        stroke: #fff;
        stroke-miterlimit: 10;
      }

      .cls-3, .cls-4 {
        fill: none;
      }

      .cls-4 {
        stroke-width: 5px;
      }
    </style>
  </defs>
  <g id="Capa_2-2" data-name="Capa 2">
    <g>
      <g>
        <g>
          <path class="cls-2" d="M486.69.5v333.96H68.99V.5h417.7ZM482.74,330.21V42.97H73.2v287.24h409.54ZM466.87,22.68c0-3.09-2.5-5.59-5.58-5.59s-5.59,2.5-5.59,5.59,2.5,5.58,5.59,5.58,5.58-2.5,5.58-5.58ZM442.12,22.26c0-3.08-2.5-5.58-5.58-5.58s-5.59,2.5-5.59,5.58,2.5,5.59,5.59,5.59,5.58-2.51,5.58-5.59ZM417.44,22.26c0-3.08-2.5-5.58-5.58-5.58s-5.59,2.5-5.59,5.58,2.5,5.59,5.59,5.59,5.58-2.51,5.58-5.59ZM392.93,22.26c0-3.08-2.5-5.58-5.58-5.58s-5.59,2.5-5.59,5.58,2.5,5.59,5.59,5.59,5.58-2.51,5.58-5.59ZM127.14,22.26c0-3.08-2.5-5.58-5.58-5.58s-5.59,2.5-5.59,5.58,2.5,5.59,5.59,5.59,5.58-2.51,5.58-5.59ZM102.59,22.26c0-3.08-2.5-5.58-5.59-5.58s-5.58,2.5-5.58,5.58,2.5,5.59,5.58,5.59,5.59-2.51,5.59-5.59Z"/>
          <polygon class="cls-2" points="423.16 124.93 423.16 253.14 396.44 253.14 396.78 163.91 360.35 228.76 345.2 228.93 308.1 163.74 307.93 253.14 282.05 253.14 282.05 124.93 312.18 124.93 352.69 196.08 392.69 124.93 423.16 124.93"/>
          <path class="cls-2" d="M206.91,124.63l57.02,128.51h-29.62l-10.21-24c-20.66,0-41.31-.03-61.96-.04-3.52,8.01-7.04,16.03-10.55,24.04h-29.62l57.19-128.51h27.75ZM215.12,206.76l-22.17-52.6-22.26,52.6h44.43Z"/>
        </g>
        <g>
          <rect class="cls-3" x="68.99" y=".5" width="417.7" height="333.96"/>
          <rect class="cls-3" x="73.2" y="42.97" width="409.54" height="287.24"/>
          <path class="cls-3" d="M102.59,22.26c0,3.08-2.5,5.59-5.59,5.59s-5.58-2.51-5.58-5.59,2.5-5.58,5.58-5.58,5.59,2.5,5.59,5.58Z"/>
          <path class="cls-3" d="M127.14,22.26c0,3.08-2.5,5.59-5.58,5.59s-5.59-2.51-5.59-5.59,2.5-5.58,5.59-5.58,5.58,2.5,5.58,5.58Z"/>
          <path class="cls-3" d="M392.93,22.26c0,3.08-2.5,5.59-5.58,5.59s-5.59-2.51-5.59-5.59,2.5-5.58,5.59-5.58,5.58,2.5,5.58,5.58Z"/>
          <path class="cls-3" d="M417.44,22.26c0,3.08-2.5,5.59-5.58,5.59s-5.59-2.51-5.59-5.59,2.5-5.58,5.59-5.58,5.58,2.5,5.58,5.58Z"/>
          <path class="cls-3" d="M442.12,22.26c0,3.08-2.5,5.59-5.58,5.59s-5.59-2.51-5.59-5.59,2.5-5.58,5.59-5.58,5.58,2.5,5.58,5.58Z"/>
          <path class="cls-3" d="M466.87,22.68c0,3.08-2.5,5.58-5.58,5.58s-5.59-2.5-5.59-5.58,2.5-5.59,5.59-5.59,5.58,2.5,5.58,5.59Z"/>
          <path class="cls-3" d="M121.97,253.14l57.19-128.51h27.75l57.02,128.51h-29.62l-10.21-24c-20.66,0-41.31-.03-61.96-.04-3.52,8.01-7.04,16.03-10.55,24.04h-29.62Z"/>
          <polygon class="cls-3" points="192.95 154.16 215.12 206.76 170.69 206.76 192.95 154.16"/>
          <polygon class="cls-3" points="282.05 253.14 282.05 124.93 312.18 124.93 352.69 196.08 392.69 124.93 423.16 124.93 423.16 253.14 396.44 253.14 396.78 163.91 360.35 228.76 345.2 228.93 308.1 163.74 307.93 253.14 282.05 253.14"/>
        </g>
      </g>
      <circle class="cls-1" cx="151.59" cy="97.67" r="15"/>
      <circle class="cls-1" cx="22.73" cy="86.44" r="15"/>
      <circle class="cls-1" cx="73.2" cy="143.12" r="15"/>
      <circle class="cls-1" cx="15.5" cy="206.76" r="15"/>
      <circle class="cls-1" cx="160.97" cy="333.65" r="15"/>
      <circle class="cls-1" cx="271.27" cy="332.89" r="15"/>
      <circle class="cls-1" cx="424.41" cy="273.65" r="15"/>
      <circle class="cls-1" cx="521.01" cy="247.78" r="15"/>
      <circle class="cls-1" cx="528.16" cy="142.14" r="15"/>
      <circle class="cls-1" cx="444.16" cy="151.5" r="15"/>
      <circle class="cls-1" cx="173.99" cy="217.61" r="15"/>
      <circle class="cls-1" cx="172.67" cy="371.06" r="15"/>
      <polyline class="cls-4" points="151.59 97.67 22.73 86.44 73.2 143.12 15.5 208.97 173.99 217.61 271.27 332.89 172.67 371.06 160.97 334.46"/>
      <polyline class="cls-4" points="521.01 247.78 488.93 206.76 444.16 149.52 528.16 142.14 490.65 204.67"/>
    </g>
  </g>
</svg>